<svg width="1451" height="547" fill="none" xmlns="http://www.w3.org/2000/svg"><rect opacity=".5" x="1138.98" y="390.084" width="82.611" height="30.843" rx="10.5" transform="rotate(-65.1 1138.98 390.084)" stroke="#2060F6" stroke-width="3"/><rect opacity=".5" x="1.992" y="-.729" width="82.611" height="30.843" rx="10.5" transform="rotate(-65.1 138.32 -80.187)" stroke="#2060F6" stroke-width="3"/><rect opacity=".5" x="365.992" y="45.341" width="42.28" height="14.9" rx="4.5" transform="rotate(-65.1 365.992 45.341)" stroke="#2060F6" stroke-width="3"/><rect opacity=".5" x="1.992" y="-.729" width="42.28" height="14.9" rx="4.5" transform="rotate(-65.099 845.401 -487.703)" stroke="#2060F6" stroke-width="3"/><rect opacity=".5" x="1.992" y="-.729" width="83.406" height="31.158" rx="10.5" transform="rotate(-65.1 915.379 -943.115)" stroke="#2060F6" stroke-width="3"/><rect opacity=".5" x="1258.01" y="479.275" width="148.608" height="55.723" rx="9.5" transform="rotate(-65.1 1258.01 479.275)" stroke="#2060F6" stroke-width="5"/><rect opacity=".5" x="3.476" y="357.998" width="62.359" height="21.628" rx="9.5" transform="rotate(-65.1 3.476 357.998)" stroke="#2060F6" stroke-width="5"/><rect opacity=".5" x="3.32" y="-1.215" width="138.037" height="51.545" rx="9.5" transform="rotate(-65.1 746.585 -839.75)" stroke="#2060F6" stroke-width="5"/><rect opacity=".5" x="1.992" y="-.729" width="50.687" height="18.223" rx="6.5" transform="rotate(-65.1 752.004 -1026.91)" stroke="#2060F6" stroke-width="3"/><rect opacity=".5" x="190.32" y="339.527" width="138.037" height="51.545" rx="9.5" transform="rotate(-65.1 190.32 339.527)" stroke="#2060F6" stroke-width="5"/><rect opacity=".5" x="52.742" y="530.078" width="88.541" height="31.978" rx="9.5" transform="rotate(-65.1 52.742 530.078)" stroke="#2060F6" stroke-width="5"/><rect opacity=".5" x="1.992" y="-.729" width="42.278" height="14.899" rx="4.5" transform="rotate(-65.1 541.514 -96.247)" stroke="#2060F6" stroke-width="3"/></svg>